<svg width="67" height="55" viewBox="0 0 67 55" fill="none" xmlns="http://www.w3.org/2000/svg">
<path d="M27.4399 7.61991C30.3878 5.77671 34.2659 6.47098 36.3912 9.22241V9.22241C37.4924 10.6479 39.1214 11.576 40.9095 11.7934L41.2593 11.8359C44.5861 12.2403 47.027 15.1678 46.8384 18.5137V18.5137C46.7385 20.2865 47.3882 22.0243 48.6293 23.2942L48.7156 23.3825C51.0773 25.799 51.0683 29.662 48.6952 32.0675V32.0675C47.452 33.3278 46.807 35.0612 46.9229 36.8277V36.8277C47.1416 40.1618 44.6833 43.0748 41.3595 43.4154L41.0496 43.4471C39.2713 43.6293 37.6419 44.5368 36.5472 45.9499V45.9499C34.4623 48.6414 30.6601 49.3063 27.7935 47.4696L27.6008 47.346C26.0765 46.3694 24.2267 46.0382 22.4582 46.4254L22.2346 46.4744C18.9088 47.2025 15.5735 45.2599 14.5518 42.0122V42.0122C14.0154 40.3071 12.8019 38.8907 11.1973 38.1028L10.9177 37.9655C7.91847 36.493 6.6235 32.908 7.98527 29.8569V29.8569C8.7068 28.2403 8.70331 26.3908 7.97448 24.7775V24.7775C6.58336 21.6981 7.91504 18.0719 10.9685 16.6248L11.08 16.5719C12.6846 15.8115 13.8969 14.4071 14.4182 12.7097V12.7097C15.4022 9.50614 18.707 7.60729 21.9675 8.38217L22.3103 8.46366C24.0628 8.88016 25.9126 8.57488 27.4399 7.61991V7.61991Z" fill="#FF9330"/>
<path d="M14.8523 32H11.7585V23.2727H14.8778C15.7557 23.2727 16.5114 23.4474 17.1449 23.7969C17.7784 24.1435 18.2656 24.642 18.6065 25.2926C18.9503 25.9432 19.1222 26.7216 19.1222 27.6278C19.1222 28.5369 18.9503 29.3182 18.6065 29.9716C18.2656 30.625 17.7756 31.1264 17.1364 31.4759C16.5 31.8253 15.7386 32 14.8523 32ZM13.6037 30.419H14.7756C15.321 30.419 15.7798 30.3224 16.152 30.1293C16.527 29.9332 16.8082 29.6307 16.9957 29.2216C17.1861 28.8097 17.2812 28.2784 17.2812 27.6278C17.2812 26.983 17.1861 26.456 16.9957 26.0469C16.8082 25.6378 16.5284 25.3366 16.1562 25.1435C15.7841 24.9503 15.3253 24.8537 14.7798 24.8537H13.6037V30.419ZM20.4549 32V25.4545H22.2148V26.5966H22.283C22.4023 26.1903 22.6026 25.8835 22.8839 25.6761C23.1651 25.4659 23.489 25.3608 23.8555 25.3608C23.9464 25.3608 24.0444 25.3665 24.1495 25.3778C24.2546 25.3892 24.3469 25.4048 24.4265 25.4247V27.0355C24.3413 27.0099 24.2234 26.9872 24.0728 26.9673C23.9222 26.9474 23.7844 26.9375 23.6594 26.9375C23.3924 26.9375 23.1538 26.9957 22.9435 27.1122C22.7362 27.2259 22.5714 27.3849 22.4492 27.5895C22.3299 27.794 22.2702 28.0298 22.2702 28.2969V32H20.4549ZM28.0178 32.1278C27.3558 32.1278 26.7834 31.9872 26.3004 31.706C25.8203 31.4219 25.4496 31.027 25.1882 30.5213C24.9268 30.0128 24.7962 29.4233 24.7962 28.7528C24.7962 28.0767 24.9268 27.4858 25.1882 26.9801C25.4496 26.4716 25.8203 26.0767 26.3004 25.7955C26.7834 25.5114 27.3558 25.3693 28.0178 25.3693C28.6797 25.3693 29.2507 25.5114 29.7308 25.7955C30.2138 26.0767 30.5859 26.4716 30.8473 26.9801C31.1087 27.4858 31.2393 28.0767 31.2393 28.7528C31.2393 29.4233 31.1087 30.0128 30.8473 30.5213C30.5859 31.027 30.2138 31.4219 29.7308 31.706C29.2507 31.9872 28.6797 32.1278 28.0178 32.1278ZM28.0263 30.7216C28.3274 30.7216 28.5788 30.6364 28.7805 30.4659C28.9822 30.2926 29.1342 30.0568 29.2365 29.7585C29.3416 29.4602 29.3942 29.1207 29.3942 28.7401C29.3942 28.3594 29.3416 28.0199 29.2365 27.7216C29.1342 27.4233 28.9822 27.1875 28.7805 27.0142C28.5788 26.8409 28.3274 26.7543 28.0263 26.7543C27.7223 26.7543 27.4666 26.8409 27.2592 27.0142C27.0547 27.1875 26.8999 27.4233 26.7947 27.7216C26.6925 28.0199 26.6413 28.3594 26.6413 28.7401C26.6413 29.1207 26.6925 29.4602 26.7947 29.7585C26.8999 30.0568 27.0547 30.2926 27.2592 30.4659C27.4666 30.6364 27.7223 30.7216 28.0263 30.7216ZM32.4197 32V25.4545H34.2351V32H32.4197ZM33.3317 24.6108C33.0618 24.6108 32.8303 24.5213 32.6371 24.3423C32.4467 24.1605 32.3516 23.9432 32.3516 23.6903C32.3516 23.4403 32.4467 23.2259 32.6371 23.0469C32.8303 22.8651 33.0618 22.7741 33.3317 22.7741C33.6016 22.7741 33.8317 22.8651 34.022 23.0469C34.2152 23.2259 34.3118 23.4403 34.3118 23.6903C34.3118 23.9432 34.2152 24.1605 34.022 24.3423C33.8317 24.5213 33.6016 24.6108 33.3317 24.6108ZM38.1012 32.1065C37.604 32.1065 37.1538 31.9787 36.7504 31.723C36.3498 31.4645 36.0316 31.0852 35.7958 30.5852C35.5629 30.0824 35.4464 29.4659 35.4464 28.7358C35.4464 27.9858 35.5671 27.3622 35.8086 26.8651C36.0501 26.3651 36.3711 25.9915 36.7717 25.7443C37.1751 25.4943 37.6168 25.3693 38.0969 25.3693C38.4634 25.3693 38.7688 25.4318 39.0131 25.5568C39.2603 25.679 39.4592 25.8324 39.6097 26.017C39.7631 26.1989 39.8796 26.3778 39.9592 26.554H40.0146V23.2727H41.8256V32H40.0359V30.9517H39.9592C39.8739 31.1335 39.7532 31.3139 39.5969 31.4929C39.4435 31.669 39.2433 31.8153 38.9961 31.9318C38.7518 32.0483 38.4535 32.1065 38.1012 32.1065ZM38.6765 30.6619C38.9691 30.6619 39.2163 30.5824 39.418 30.4233C39.6225 30.2614 39.7788 30.0355 39.8867 29.7457C39.9975 29.456 40.0529 29.1165 40.0529 28.7273C40.0529 28.3381 39.9989 28 39.891 27.7131C39.783 27.4261 39.6268 27.2045 39.4222 27.0483C39.2177 26.892 38.9691 26.8139 38.6765 26.8139C38.3782 26.8139 38.1268 26.8949 37.9222 27.0568C37.7177 27.2187 37.5629 27.4432 37.4577 27.7301C37.3526 28.017 37.3001 28.3494 37.3001 28.7273C37.3001 29.108 37.3526 29.4446 37.4577 29.7372C37.5657 30.027 37.7205 30.2543 37.9222 30.419C38.1268 30.581 38.3782 30.6619 38.6765 30.6619ZM47.3963 27.696V29.1364H43.4162V27.696H47.3963Z" fill="white"/>
<path d="M53.5359 28.2159V32H51.7205V25.4545H53.4506V26.6094H53.5273C53.6722 26.2287 53.9151 25.9276 54.256 25.706C54.5969 25.4815 55.0103 25.3693 55.4961 25.3693C55.9506 25.3693 56.3469 25.4688 56.685 25.6676C57.0231 25.8665 57.2859 26.1506 57.4734 26.5199C57.6609 26.8864 57.7546 27.3239 57.7546 27.8324V32H55.9393V28.1562C55.9421 27.7557 55.8398 27.4432 55.6325 27.2188C55.4251 26.9915 55.1396 26.8778 54.7759 26.8778C54.5316 26.8778 54.3157 26.9304 54.1282 27.0355C53.9435 27.1406 53.7987 27.294 53.6935 27.4957C53.5913 27.6946 53.5387 27.9347 53.5359 28.2159ZM62.1342 34.5909C61.5462 34.5909 61.0419 34.5099 60.6214 34.348C60.2038 34.1889 59.8714 33.9716 59.6243 33.696C59.3771 33.4205 59.2166 33.1108 59.1428 32.767L60.8217 32.5412C60.8729 32.6719 60.9538 32.794 61.0646 32.9077C61.1754 33.0213 61.3217 33.1122 61.5036 33.1804C61.6882 33.2514 61.9126 33.2869 62.1768 33.2869C62.5717 33.2869 62.897 33.1903 63.1527 32.9972C63.4112 32.8068 63.5405 32.4872 63.5405 32.0384V30.8409H63.4638C63.3842 31.0227 63.2649 31.1946 63.1058 31.3565C62.9467 31.5185 62.7422 31.6506 62.4922 31.7528C62.2422 31.8551 61.9439 31.9062 61.5973 31.9062C61.1058 31.9062 60.6584 31.7926 60.255 31.5653C59.8544 31.3352 59.5348 30.9844 59.2962 30.5128C59.0604 30.0384 58.9425 29.4389 58.9425 28.7145C58.9425 27.973 59.0632 27.3537 59.3047 26.8565C59.5462 26.3594 59.8672 25.9872 60.2678 25.7401C60.6712 25.4929 61.1129 25.3693 61.593 25.3693C61.9595 25.3693 62.2663 25.4318 62.5135 25.5568C62.7607 25.679 62.9595 25.8324 63.1101 26.017C63.2635 26.1989 63.3814 26.3778 63.4638 26.554H63.532V25.4545H65.3345V32.0639C65.3345 32.6207 65.1982 33.0866 64.9254 33.4616C64.6527 33.8366 64.2749 34.1179 63.7919 34.3054C63.3118 34.4957 62.7592 34.5909 62.1342 34.5909ZM62.1726 30.5426C62.4652 30.5426 62.7124 30.4702 62.9141 30.3253C63.1186 30.1776 63.2749 29.9673 63.3828 29.6946C63.4936 29.419 63.549 29.0895 63.549 28.706C63.549 28.3224 63.495 27.9901 63.3871 27.7088C63.2791 27.4247 63.1229 27.2045 62.9183 27.0483C62.7138 26.892 62.4652 26.8139 62.1726 26.8139C61.8743 26.8139 61.6229 26.8949 61.4183 27.0568C61.2138 27.2159 61.0589 27.4375 60.9538 27.7216C60.8487 28.0057 60.7962 28.3338 60.7962 28.706C60.7962 29.0838 60.8487 29.4105 60.9538 29.6861C61.0618 29.9588 61.2166 30.1705 61.4183 30.321C61.6229 30.4687 61.8743 30.5426 62.1726 30.5426Z" fill="#FF9330"/>
</svg>
