<svg width="611" height="595" viewBox="0 0 611 595" fill="none" xmlns="http://www.w3.org/2000/svg">
<path d="M329.586 -155.227C378.975 -199.422 454.025 -199.422 503.414 -155.227C528.972 -132.358 562.645 -120.51 596.888 -122.413L605.506 -122.892C668.614 -126.399 723.666 -80.1491 731.376 -17.4157C735.484 16.004 753.537 46.2417 781.058 65.6424L783.535 67.3891C835.748 104.197 848.473 176.241 812.029 228.708C792.893 256.257 786.601 290.769 794.752 323.307C810.052 384.379 774.088 446.64 713.513 463.802L706.16 465.885C673.488 475.142 645.953 497.481 630.065 527.493C599.882 584.504 531.238 609.604 471.536 585.171L466.355 583.051C434.404 569.975 398.596 569.975 366.646 583.051L361.464 585.171C301.762 609.604 233.118 584.504 202.935 527.493C187.047 497.481 159.512 475.142 126.84 465.885L119.487 463.802C58.9117 446.64 22.9477 384.379 38.2475 323.307C46.399 290.769 40.1066 256.257 20.9707 228.708C-15.4729 176.241 -2.74763 104.197 49.4647 67.3891L51.9425 65.6424C79.4627 46.2417 97.516 16.004 101.624 -17.4157C109.334 -80.1491 164.386 -126.399 227.494 -122.892L236.112 -122.413C270.355 -120.51 304.028 -132.358 329.586 -155.227Z" fill="#FF9330"/>
</svg>
